<svg version="1.1" xmlns="http://www.w3.org/2000/svg" viewBox="0 0 1116.9545454545453 718.2454587645476" width="1116.9545454545453" height="718.2454587645476" filter="invert(93%) hue-rotate(180deg)">
  <!-- svg-source:excalidraw -->
  
  <defs>
    <style>
      @font-face {
        font-family: "Virgil";
        src: url("https://excalidraw.com/Virgil.woff2");
      }
      @font-face {
        font-family: "Cascadia";
        src: url("https://excalidraw.com/Cascadia.woff2");
      }
    </style>
  </defs>
  <rect x="0" y="0" width="1116.9545454545453" height="718.2454587645476" fill="#ffffff"></rect><g stroke-linecap="round" transform="translate(220.12664236348394 10) rotate(0 288.0793650793653 349.1227293822738)"><path d="M0.04 0.7 C154.85 -1.03, 310.67 -1.34, 576.89 0.14 M0.14 -0.37 C170.2 0.51, 340.72 0.57, 576.12 0.05 M576.84 0.19 C577.63 249.97, 577.38 497.87, 575.89 698.99 M576.28 -0.15 C574.49 222.31, 574.64 444.86, 576.28 698.09 M576.5 698.15 C350.51 698.63, 125.15 698.45, -0.05 697.61 M576.14 698.32 C439.67 696.42, 303.65 696.36, 0.22 698.08 M-0.43 698.83 C-1 503.97, -0.95 309.31, -0.71 0.75 M0.24 697.87 C-0.06 424.74, -0.29 151.49, -0.32 -0.21" stroke="#000000" stroke-width="1" fill="none"></path></g><g stroke-linecap="round" transform="translate(240.29261995892352 27.953045508964266) rotate(0 264.76825112546226 50.56048131570769)"><path d="M-0.31 -0.68 C209.44 0.99, 417.12 1.73, 528.75 0.01 M-0.24 0.21 C211.02 0.75, 422.4 0.88, 529.5 0.06 M528.24 1.71 C526.82 22.27, 527.34 42.33, 530.83 100.08 M529.83 -0.09 C531.15 28.18, 529.71 56.44, 529.99 101.35 M529.09 101.91 C411.04 103.13, 293.28 102.56, 0.38 101.08 M529.71 101.45 C406.18 100.04, 282.29 99.73, -0.2 101.47 M0.46 101.57 C1.01 62.08, -0.13 26.93, -1.47 -1.44 M0.61 101.83 C1.42 73.29, 0.47 44.18, -0.77 0.45" stroke="#1864ab" stroke-width="1" fill="none"></path></g><g stroke-linecap="round" transform="translate(238.70096438143253 585.3771580392057) rotate(0 263.3099177921291 53.16666278012843)"><path d="M-0.37 -0.62 C188.45 0.04, 376.75 0.86, 526.54 -0.01 M-0.01 -0.05 C172.53 0.85, 345.5 1.15, 526.86 -0.28 M524.85 1.34 C526.34 40.87, 528.23 81.03, 528.13 106.85 M526.55 -0.5 C526.9 25.91, 527.22 50.94, 527.55 107.32 M526.41 105.8 C318.26 106.44, 108.84 106.9, -0.45 105.73 M526.78 106.32 C394.88 107.67, 263.39 107.62, 0.29 105.94 M-1.03 104.35 C1.23 76.1, 0.02 49.59, -1.6 -1.57 M0.07 106.27 C-0.57 82.65, -0.34 57.68, -0.67 -0.33" stroke="#1864ab" stroke-width="1" fill="none"></path></g><g stroke-linecap="round" transform="translate(238.63371271488904 145.85020811372087) rotate(0 263.915912097592 214.50317076908163)"><path d="M0.75 0.1 C129.89 1.68, 259.45 0.36, 527.86 -0.14 M0.1 -0.05 C172.08 -0.66, 343.14 -0.7, 527.87 0.28 M527.23 0.07 C528.48 115.2, 528.47 231.94, 528.53 428.86 M527.93 -0.05 C529 145.76, 529.45 292.65, 527.35 429.48 M527.95 429.59 C420.48 426.81, 312.87 427.56, -0.06 428.55 M527.52 428.62 C341.7 428.68, 155.48 429.02, -0.05 429.25 M0.36 430.02 C-2.11 324.28, -1.43 219.31, -0.86 -0.46 M-0.16 429.32 C-1.73 317.82, -1.1 206.66, 0.43 0.45" stroke="#1864ab" stroke-width="1" fill="none"></path></g><g stroke-linecap="round" transform="translate(278.5075947444366 46.492063492063465) rotate(0 38 31)"><path d="M-1.38 -0.35 C29.28 1.77, 62.14 -1.42, 75.09 2 M0.5 0.06 C15.81 0.18, 33.22 0.11, 76.41 0.63 M76.14 -0.77 C74.51 15.66, 76.12 31.74, 74.97 60.56 M76.49 -0.54 C74.73 15.41, 75.5 28.68, 76.37 61.35 M76.44 62.34 C56.04 60.17, 34.72 62.97, -0.58 61.14 M75.64 62.2 C56.45 63.39, 39.53 62.52, 0.71 62.37 M-2 60.57 C2.12 41.72, 0.89 18.64, -0.63 -0.32 M-0.71 61.69 C-0.11 41.61, -0.59 20.56, 0.67 0.8" stroke="#5f3dc4" stroke-width="1" fill="none"></path></g><g stroke-linecap="round" transform="translate(384.5075947444366 45.492063492063465) rotate(0 91.5 31)"><path d="M0.75 -1.29 C67.6 1.15, 136.05 1.72, 183.34 1.6 M-0.29 -0.43 C36.9 -0.98, 75.73 -1.18, 183.2 -0.88 M184.43 0.73 C184.47 22.51, 184.84 44.49, 181.57 63.89 M182.69 -0.16 C183.63 22.44, 183.31 43.92, 182.69 61.96 M184.34 63.6 C114.49 62.55, 42.12 62.65, 0.74 63.14 M183.4 61.91 C123.9 61.8, 63.87 62.59, 0.65 62.15 M-1.82 63.64 C-1.03 46.94, -0.13 29.29, 1.36 -1.91 M0.12 61.69 C1.13 39.62, 0.7 18.86, 0.8 0.53" stroke="#5f3dc4" stroke-width="1" fill="none"></path></g><g stroke-linecap="round" transform="translate(593.0075947444366 47.492063492063465) rotate(0 70.5 31)"><path d="M1.13 1.09 C46.77 -1.23, 96.22 -1.31, 140.58 -1.35 M-0.08 -0.29 C53.44 0.03, 107.66 -0.22, 141.24 -0.22 M139.71 0.2 C141.39 23.19, 140.36 46.26, 142.75 61.92 M140.56 -0.44 C141.7 22.4, 140.05 44.44, 140.14 62.47 M139.45 61.36 C89.02 62.1, 34.04 62.35, 1.27 62.38 M141.81 61.83 C96.04 61.29, 49.76 62.14, -0.82 61.2 M1.24 63.81 C-1.39 45.35, 0.29 28.36, -0.55 -0.43 M0.83 61.13 C1.32 45.38, 1.6 25.91, -0.59 0.31" stroke="#5f3dc4" stroke-width="1" fill="none"></path></g><g transform="translate(294.5075947444366 64.99206349206341) rotate(0 22 12.5)"><text x="22" y="18" font-family="Virgil, Segoe UI Emoji" font-size="20px" fill="#5f3dc4" text-anchor="middle" style="white-space: pre;" direction="ltr">Logo</text></g><g transform="translate(403.5075947444366 54.492063492063465) rotate(0 75 25)"><text x="0" y="18" font-family="Virgil, Segoe UI Emoji" font-size="20px" fill="#5f3dc4" text-anchor="start" style="white-space: pre;" direction="ltr">Título para a </text><text x="0" y="43" font-family="Virgil, Segoe UI Emoji" font-size="20px" fill="#5f3dc4" text-anchor="start" style="white-space: pre;" direction="ltr">página</text></g><g transform="translate(613.5075947444366 64.49206349206341) rotate(0 52.5 12.5)"><text x="0" y="18" font-family="Virgil, Segoe UI Emoji" font-size="20px" fill="#5f3dc4" text-anchor="start" style="white-space: pre;" direction="ltr">Navegação</text></g><g stroke-linecap="round"><g transform="translate(772.2520577661201 80.23000882667814) rotate(0 52.02663711055851 3.518938337108942)"><path d="M-0.31 -0.66 C17.27 0.54, 87.21 5.12, 104.37 6.6 M1.73 1.6 C19.3 2.99, 86.54 6.93, 103.73 7.7" stroke="#1864ab" stroke-width="1" fill="none"></path></g><g transform="translate(772.2520577661201 80.23000882667814) rotate(0 52.02663711055851 3.518938337108942)"><path d="M73.94 17.46 C79.67 12.81, 88.29 12.47, 105.49 8.91 M74.91 16.72 C85.69 13.39, 95.81 10.69, 103.3 8.46" stroke="#1864ab" stroke-width="1" fill="none"></path></g><g transform="translate(772.2520577661201 80.23000882667814) rotate(0 52.02663711055851 3.518938337108942)"><path d="M75.02 -3.03 C80.43 -3.42, 88.83 0.49, 105.49 8.91 M76 -3.77 C86.3 0.33, 96.02 5.05, 103.3 8.46" stroke="#1864ab" stroke-width="1" fill="none"></path></g></g><g stroke-linecap="round"><g transform="translate(770.0738454940504 243.606207501021) rotate(0 43.34540184570568 0.9089454267467829)"><path d="M-0.9 0.17 C13.32 0.67, 70.9 2.29, 85.34 2.6 M0.83 -0.78 C15.42 -0.6, 73.61 0.12, 87.59 0.81" stroke="#1864ab" stroke-width="1" fill="none"></path></g><g transform="translate(770.0738454940504 243.606207501021) rotate(0 43.34540184570568 0.9089454267467829)"><path d="M59.41 8.82 C68.85 6.83, 76.52 3.77, 89.19 2.23 M59.93 9.53 C65.2 7.93, 70.45 5.44, 88.1 0.12" stroke="#1864ab" stroke-width="1" fill="none"></path></g><g transform="translate(770.0738454940504 243.606207501021) rotate(0 43.34540184570568 0.9089454267467829)"><path d="M59.98 -11.69 C69.18 -7.46, 76.68 -4.3, 89.19 2.23 M60.49 -10.99 C65.68 -8.39, 70.83 -6.7, 88.1 0.12" stroke="#1864ab" stroke-width="1" fill="none"></path></g></g><g stroke-linecap="round"><g transform="translate(768.6973012246862 612.4720247200348) rotate(0 34.152417920635514 -3.8976588864884434)"><path d="M-0.8 -0.37 C10.57 -1.29, 57.71 -4.5, 69.11 -5.66 M0.98 -1.61 C12.15 -2.87, 56.88 -6.6, 68.37 -7.43" stroke="#1864ab" stroke-width="1" fill="none"></path></g><g transform="translate(768.6973012246862 612.4720247200348) rotate(0 34.152417920635514 -3.8976588864884434)"><path d="M40.46 5.7 C52.37 -1.24, 59.73 -3.7, 67.44 -7.15 M40.39 5.63 C50.36 0.83, 58.23 -3.33, 67.84 -8.25" stroke="#1864ab" stroke-width="1" fill="none"></path></g><g transform="translate(768.6973012246862 612.4720247200348) rotate(0 34.152417920635514 -3.8976588864884434)"><path d="M38.85 -14.76 C51.34 -14.08, 59.3 -8.94, 67.44 -7.15 M38.78 -14.83 C49.34 -12.85, 57.74 -10.23, 67.84 -8.25" stroke="#1864ab" stroke-width="1" fill="none"></path></g></g><g transform="translate(896.4177489177493 78.3926482873851) rotate(0 48.5 12.5)"><text x="0" y="18" font-family="Virgil, Segoe UI Emoji" font-size="20px" fill="#1864ab" text-anchor="start" style="white-space: pre;" direction="ltr">Cabeçalho</text></g><g transform="translate(866.6212121212125 593.6228070175438) rotate(0 36 12.5)"><text x="0" y="18" font-family="Virgil, Segoe UI Emoji" font-size="20px" fill="#1864ab" text-anchor="start" style="white-space: pre;" direction="ltr">Rodapé</text></g><g transform="translate(887.7323232323233 230.84502923976606) rotate(0 65.5 12.5)"><text x="0" y="18" font-family="Virgil, Segoe UI Emoji" font-size="20px" fill="#1864ab" text-anchor="start" style="white-space: pre;" direction="ltr">Area principal</text></g><g stroke-linecap="round" transform="translate(276.8434343434343 607.4561403508773) rotate(0 38 31)"><path d="M1.41 -0.81 C18.32 -0.95, 40.28 0.22, 75.13 -0.61 M-0.14 -0.5 C25.22 -0.64, 51.09 -0.35, 75.62 -0.5 M77.63 1.8 C75.17 20.95, 75.1 40.25, 77.14 60.81 M75.37 0.77 C77 20.89, 76.37 42.88, 75.47 62.48 M74.45 62.74 C55.13 62.46, 36.53 60.37, 1.48 61.63 M75.76 62.71 C50.95 62.03, 26.92 61.76, -0.79 62.02 M-1.95 60.44 C0.58 46.88, 2.21 33.8, -0.28 -0.35 M0.3 61.56 C0.05 38.64, 1.05 15.7, -0.49 0.6" stroke="#364fc7" stroke-width="1" fill="none"></path></g><g stroke-linecap="round" transform="translate(378.0656565656561 609.4561403508771) rotate(0 73.55555555555566 29.33333333333337)"><path d="M-1.39 -1.62 C31.94 0.14, 61.27 -0.01, 147.76 1.08 M-0.06 -0.83 C40.96 0.19, 80.49 0.23, 147.29 0.07 M146.24 1.26 C146.65 23.64, 148.73 44.35, 148.02 58.9 M148.04 -0.53 C147.04 18.15, 146.2 36.69, 146.73 58.86 M146.17 59.16 C104.04 57.61, 61.62 58.84, 0.56 59.48 M147.01 58.03 C90.93 58.8, 32.34 59.73, -0.7 58.11 M0.23 57.81 C2.44 44.3, 0.29 28.92, 1.35 -1.28 M-0.35 58.09 C0.48 41.51, -0.66 26.43, 0.18 -0.15" stroke="#364fc7" stroke-width="1" fill="none"></path></g><g stroke-linecap="round" transform="translate(550.8434343434342 611.4561403508773) rotate(0 90.77777777777783 27.66666666666663)"><path d="M1.75 -0.48 C52.55 -0.95, 101 0.87, 179.74 -1.58 M-0.49 -0.97 C54.11 1.13, 109.36 1.95, 181.72 -0.14 M181.15 0.59 C181.04 14.93, 180.77 32.56, 180.08 54.36 M180.61 -0.43 C181.43 19.65, 181.64 40.77, 181.56 55.09 M179.69 53.48 C131.83 54.72, 83.16 55.13, -1.07 55.62 M182.27 55.58 C123.33 55.84, 66.6 55.8, 0.27 55.35 M-1.67 53.91 C-1.1 45.17, -2.03 32.71, 1.3 0.43 M-0.52 55.53 C-0.14 38.28, -0.14 21.62, -0.42 -0.25" stroke="#364fc7" stroke-width="1" fill="none"></path></g><g transform="translate(283.3434343434343 625.9561403508773) rotate(0 31.5 12.5)"><text x="31.5" y="18" font-family="Virgil, Segoe UI Emoji" font-size="20px" fill="#364fc7" text-anchor="middle" style="white-space: pre;" direction="ltr">Github</text></g><g transform="translate(385.1212121212121 624.8450292397663) rotate(0 66.5 12.5)"><text x="66.5" y="18" font-family="Virgil, Segoe UI Emoji" font-size="20px" fill="#364fc7" text-anchor="middle" style="white-space: pre;" direction="ltr">Redes sociais</text></g><g transform="translate(562.9545454545454 629.0672514619883) rotate(0 80.88888888888891 10.42382588774342)"><text x="80.88888888888891" y="14.847651775486835" font-family="Virgil, Segoe UI Emoji" font-size="16.67812142038947px" fill="#364fc7" text-anchor="middle" style="white-space: pre;" direction="ltr">Direitos reservados</text></g><g stroke-linecap="round" transform="translate(445.07575757575705 182.28442317916011) rotate(0 69.18853931282223 81.56372520617256)"><path d="M-0.73 0.98 C47.63 -2.86, 96.05 -1.06, 140.31 -0.53 M-0.96 -0.48 C45.29 0.08, 88.99 0.45, 137.69 0.18 M138.05 0.58 C137.04 32.19, 137.08 64.46, 139.53 161.57 M137.76 -0.79 C140.54 55.64, 138.68 113, 139.09 163.03 M138.28 162.62 C107.74 161.68, 73.57 163.37, -1.64 163.78 M139 163.82 C89.55 163.54, 40.91 163.78, -0.12 163.33 M0.97 165.1 C-2.02 120.27, 1.34 80.04, -0.1 0.25 M-0.77 163.19 C0.63 119.53, -0.43 76.94, 0.49 0.33" stroke="#5c940d" stroke-width="1" fill="none"></path></g><g stroke-linecap="round" transform="translate(256.36868686868684 165.01169590643272) rotate(0 78.73737373737367 191.1111111111112)"><path d="M0.93 0.54 C35.58 3.09, 67.77 0.07, 155.77 0.36 M-0.56 0.06 C42.56 1.26, 84.6 0.47, 156.84 0.48 M157.91 0.89 C158.15 122.52, 158.18 245.87, 157.58 382.32 M157.14 0.23 C158.62 99.4, 158.45 198.58, 157.11 382.56 M158.41 383.71 C107.53 384.21, 56.97 382.64, 1.59 381.89 M157.2 382.74 C113.19 381.34, 69.49 380.74, -0.28 381.47 M0.09 381.56 C-0.26 231.65, 0.54 82.25, -0.01 1 M0.37 382.74 C1.67 294.82, 1.41 208.03, -0.54 0.49" stroke="#862e9c" stroke-width="1" fill="none"></path></g><g transform="translate(284.42696221290385 187.55967570441254) rotate(0 50.546736997055916 11.80998527968596)"><text x="0" y="16.619970559371932" font-family="Virgil, Segoe UI Emoji" font-size="18.895976447497542px" fill="#862e9c" text-anchor="start" style="white-space: pre;" direction="ltr">Categorias</text></g><g transform="translate(279.1780798663773 237.96793271019214) rotate(0 54.79833169774287 11.809985279685975)"><text x="0" y="16.619970559371932" font-family="Virgil, Segoe UI Emoji" font-size="18.89597644749755px" fill="#000000" text-anchor="start" style="white-space: pre;" direction="ltr">categoria A</text></g><g transform="translate(277.91834810321063 272.45308972687474) rotate(0 55.743130520117745 11.809985279685975)"><text x="0" y="16.619970559371932" font-family="Virgil, Segoe UI Emoji" font-size="18.89597644749755px" fill="#000000" text-anchor="start" style="white-space: pre;" direction="ltr">categoria B</text></g><g transform="translate(278.8631469255853 306.9907355670223) rotate(0 54.79833169774287 11.809985279685975)"><text x="0" y="16.619970559371932" font-family="Virgil, Segoe UI Emoji" font-size="18.89597644749755px" fill="#000000" text-anchor="start" style="white-space: pre;" direction="ltr">categoria C</text></g><g transform="translate(281.06767751112693 344.8876661089481) rotate(0 56.215529931305184 11.809985279685975)"><text x="0" y="16.619970559371932" font-family="Virgil, Segoe UI Emoji" font-size="18.895976447497553px" fill="#000000" text-anchor="start" style="white-space: pre;" direction="ltr">categoria D</text></g><g transform="translate(282.11745398043183 383.7293954732495) rotate(0 55.270731108930306 11.809985279685975)"><text x="0" y="16.619970559371932" font-family="Virgil, Segoe UI Emoji" font-size="18.895976447497546px" fill="#000000" text-anchor="start" style="white-space: pre;" direction="ltr">categoria E</text></g><g transform="translate(278.96812457251576 419.42179542963333) rotate(0 54.32593228655543 11.809985279685975)"><text x="0" y="16.619970559371932" font-family="Virgil, Segoe UI Emoji" font-size="18.895976447497546px" fill="#000000" text-anchor="start" style="white-space: pre;" direction="ltr">categoria F</text></g><g transform="translate(281.06767751112693 457.2137483246289) rotate(0 56.215529931305184 11.809985279685975)"><text x="0" y="16.619970559371932" font-family="Virgil, Segoe UI Emoji" font-size="18.895976447497553px" fill="#000000" text-anchor="start" style="white-space: pre;" direction="ltr">categoria G</text></g><g transform="translate(281.0676775111283 491.8563718117065) rotate(0 53.85353287536799 11.809985279685975)"><text x="0" y="16.619970559371932" font-family="Virgil, Segoe UI Emoji" font-size="18.89597644749755px" fill="#000000" text-anchor="start" style="white-space: pre;" direction="ltr">categoria H</text></g><g stroke-linecap="round"><g transform="translate(268.8989898989898 358.7981756095061) rotate(0 -50.0063190280712 2.2483383292664314)"><path d="M-0.37 -0.99 C-17.25 -0.53, -84.23 2.97, -101.25 3.93 M1.64 1.1 C-15.31 2.28, -84.16 5.2, -101.65 5.49" stroke="#c92a2a" stroke-width="1" fill="none"></path></g><g transform="translate(268.8989898989898 358.7981756095061) rotate(0 -50.0063190280712 2.2483383292664314)"><path d="M-75.46 -3.93 C-82 -2.69, -89.05 -0.65, -100.18 6.32 M-73.81 -4.86 C-81.2 -3.32, -85.92 -1.07, -100.68 5.43" stroke="#c92a2a" stroke-width="1" fill="none"></path></g><g transform="translate(268.8989898989898 358.7981756095061) rotate(0 -50.0063190280712 2.2483383292664314)"><path d="M-74.8 16.58 C-81.74 11.64, -88.99 7.51, -100.18 6.32 M-73.16 15.65 C-80.86 12.41, -85.73 9.87, -100.68 5.43" stroke="#c92a2a" stroke-width="1" fill="none"></path></g></g><g transform="translate(62.954545454545325 338.233918128655) rotate(0 48 25)"><text x="0" y="18" font-family="Virgil, Segoe UI Emoji" font-size="20px" fill="#c92a2a" text-anchor="start" style="white-space: pre;" direction="ltr">Lista não</text><text x="0" y="43" font-family="Virgil, Segoe UI Emoji" font-size="20px" fill="#c92a2a" text-anchor="start" style="white-space: pre;" direction="ltr">ordenada</text></g><g transform="translate(467.57609556366674 195.67212428196632) rotate(0 47.644465689398714 8.32945204360118)"><text x="0" y="11.658904087202355" font-family="Virgil, Segoe UI Emoji" font-size="13.327123269761884px" fill="#5c940d" text-anchor="start" style="white-space: pre;" direction="ltr">Título do item</text></g><g stroke-linecap="round" transform="translate(460.8259941672941 227.28509915497915) rotate(0 54.000811170983184 29.812947833980303)"><path d="M-1.55 -0.19 C31.81 0.87, 61.18 2.47, 109.24 1.18 M0.15 0.12 C39.82 0.58, 78.46 -0.03, 107.08 -0.28 M107.39 -0.05 C108.46 14.29, 106.21 31.74, 107.27 57.85 M107.53 0 C108.6 23.93, 108.45 46.26, 107.74 59.44 M108.39 60.42 C75.97 59.39, 45.2 61.34, -1.06 60.84 M107.52 60.59 C65.34 60, 25.07 60.28, 0.3 60.61 M1.01 58.42 C-1.4 42.69, 1.44 31.16, 0.64 1.03 M0.45 59.5 C0.96 41.98, 1.1 22.17, 0.54 -0.99" stroke="#000000" stroke-width="1" fill="none"></path></g><g transform="translate(485.5763659539949 237.29774955959914) rotate(0 31.10671726828508 19.64634774839061)"><text x="0" y="13.6463477483906" font-family="Virgil, Segoe UI Emoji" font-size="15.52304019625924px" fill="#000000" text-anchor="start" style="white-space: pre;" direction="ltr">Imagem </text><text x="0" y="33.2926954967812" font-family="Virgil, Segoe UI Emoji" font-size="15.52304019625924px" fill="#000000" text-anchor="start" style="white-space: pre;" direction="ltr">do item</text></g><g transform="translate(456.3259265697127 304.7987635233281) rotate(0 57.8821194738976 8.395116564916435)"><text x="0" y="11.790233129832888" font-family="Virgil, Segoe UI Emoji" font-size="13.126251815874276px" fill="#000000" text-anchor="start" style="white-space: pre;" direction="ltr">Descrição do item</text></g><g stroke-linecap="round" transform="translate(600.8905981420316 183.97194852825322) rotate(0 69.18853931282223 81.56372520617256)"><path d="M0.72 -1.33 C47.98 -0.92, 95.19 -0.32, 140.06 0.61 M0.71 -0.79 C35.52 -0.15, 71.34 -0.11, 137.42 0.88 M138.61 -1.38 C135.69 35.33, 139.45 74.19, 137.92 161.96 M138.92 -0.08 C137.58 55.12, 136.26 108.18, 138.63 163.93 M137.56 162.28 C101.25 160.67, 63.3 162.21, 1.67 162.49 M137.89 163.7 C108.59 163.77, 80.45 164.44, 0.68 162.76 M-1.52 164.83 C-0.73 126.62, -2.29 88.67, -0.11 1.48 M-0.88 163.41 C-0.65 128.85, -2 94.13, 0.49 -0.56" stroke="#5c940d" stroke-width="1" fill="none"></path></g><g transform="translate(623.3909361299416 197.35964963105948) rotate(0 47.644465689398714 8.32945204360118)"><text x="0" y="11.658904087202355" font-family="Virgil, Segoe UI Emoji" font-size="13.327123269761884px" fill="#5c940d" text-anchor="start" style="white-space: pre;" direction="ltr">Título do item</text></g><g stroke-linecap="round" transform="translate(616.640834733569 228.9726245040727) rotate(0 54.000811170983184 29.812947833980303)"><path d="M0.15 -1.57 C26.91 -0.24, 56.41 1.33, 107.16 0.22 M-0.16 0.44 C36.93 1.33, 72.97 1.73, 107.24 -0.44 M106.03 -1.16 C109.85 17.32, 107.61 31.06, 108.66 57.91 M108.6 0.8 C107.6 12.29, 108.58 26.32, 107.71 59.04 M108.37 58.52 C86.04 59.6, 65.9 58.53, -1.79 60.85 M107.36 59.25 C68.04 60.54, 28.04 59.87, -0.75 60.21 M0.22 59.8 C-0.89 38.05, 0.34 20.15, -1.72 1.93 M0.92 60.24 C0.1 45.44, 1.02 29.16, 0.08 0.95" stroke="#000000" stroke-width="1" fill="none"></path></g><g transform="translate(641.3912065202695 238.9852749086926) rotate(0 31.10671726828508 19.64634774839061)"><text x="0" y="13.6463477483906" font-family="Virgil, Segoe UI Emoji" font-size="15.52304019625924px" fill="#000000" text-anchor="start" style="white-space: pre;" direction="ltr">Imagem </text><text x="0" y="33.2926954967812" font-family="Virgil, Segoe UI Emoji" font-size="15.52304019625924px" fill="#000000" text-anchor="start" style="white-space: pre;" direction="ltr">do item</text></g><g transform="translate(612.1407671359864 306.48628887242154) rotate(0 57.8821194738976 8.395116564916435)"><text x="0" y="11.790233129832888" font-family="Virgil, Segoe UI Emoji" font-size="13.126251815874276px" fill="#000000" text-anchor="start" style="white-space: pre;" direction="ltr">Descrição do item</text></g><g stroke-linecap="round" transform="translate(598.6405643432416 365.0996693309258) rotate(0 69.18853931282223 81.56372520617256)"><path d="M-0.2 -0.28 C39.52 0.16, 78.74 0.63, 138.09 1.23 M0.89 0.16 C40.72 0.48, 78.81 -0.33, 138.26 0.52 M139.42 -0.66 C140.67 64.27, 141.56 128.68, 138.93 163.98 M137.5 0.74 C138.17 46.87, 139.51 93.62, 137.94 162.55 M136.84 162.82 C91.99 163.71, 44.24 162.25, -1.12 163.58 M138.29 164.08 C92.84 163.16, 47.87 161.61, 0.84 162.45 M1.99 161.74 C1.81 116.93, 1.36 69.21, -1.06 -1.19 M-0.97 163.45 C0.48 100.37, 1.22 37.7, 0.19 -0.6" stroke="#5c940d" stroke-width="1" fill="none"></path></g><g transform="translate(621.140902331151 378.48737043373234) rotate(0 47.644465689398714 8.32945204360118)"><text x="0" y="11.658904087202355" font-family="Virgil, Segoe UI Emoji" font-size="13.327123269761884px" fill="#5c940d" text-anchor="start" style="white-space: pre;" direction="ltr">Título do item</text></g><g stroke-linecap="round" transform="translate(614.3908009347779 410.1003453067453) rotate(0 54.000811170983184 29.812947833980303)"><path d="M0.83 -0.85 C25.87 -0.23, 48.76 1.38, 107.75 -0.11 M0.95 0.63 C32.79 -0.35, 66.93 0.35, 108.99 0.76 M109.05 -0.75 C110.25 17.53, 108.86 38.66, 107.69 60.2 M107.33 0.5 C108.15 23.52, 107.04 44.7, 108.35 58.76 M107.9 59.54 C68.82 57.92, 31.66 59.92, 0.54 61.47 M107.73 60.59 C82.89 60.06, 58.59 59.97, -0.1 59.06 M0.89 60.74 C-0.16 43.62, -1.65 24.98, 1.68 -0.9 M-0.25 59.48 C1.06 46.43, 0.77 33.06, -0.79 -0.06" stroke="#000000" stroke-width="1" fill="none"></path></g><g transform="translate(639.1411727214787 420.11299571136516) rotate(0 31.10671726828508 19.64634774839061)"><text x="0" y="13.6463477483906" font-family="Virgil, Segoe UI Emoji" font-size="15.52304019625924px" fill="#000000" text-anchor="start" style="white-space: pre;" direction="ltr">Imagem </text><text x="0" y="33.2926954967812" font-family="Virgil, Segoe UI Emoji" font-size="15.52304019625924px" fill="#000000" text-anchor="start" style="white-space: pre;" direction="ltr">do item</text></g><g transform="translate(609.8907333371956 487.61400967509405) rotate(0 57.8821194738976 8.395116564916464)"><text x="0" y="11.790233129832888" font-family="Virgil, Segoe UI Emoji" font-size="13.126251815874276px" fill="#000000" text-anchor="start" style="white-space: pre;" direction="ltr">Descrição do item</text></g><g stroke-linecap="round" transform="translate(445.63826602545566 366.22468623032165) rotate(0 69.18853931282223 81.56372520617256)"><path d="M-1.95 1.62 C26.14 0.72, 55.59 0.65, 137.08 1.18 M-0.15 0.57 C55.86 -0.03, 110.19 0.14, 138.68 -0.2 M137.21 0.88 C138.13 42.83, 138.35 89.3, 139.55 162.68 M138.75 0.79 C139.68 60.54, 139.96 121.53, 137.85 162.55 M139.57 163.68 C90.86 164.3, 40.7 164.46, 0.82 162.93 M137.68 163.24 C84.91 162.87, 32.38 163.4, -0.31 162.77 M-1.91 163.07 C-1.4 126.67, -0.51 91.86, 1.92 1.17 M-0.35 163.73 C1.49 107.2, 1.75 48.47, 0.19 0.7" stroke="#5c940d" stroke-width="1" fill="none"></path></g><g transform="translate(468.138604013365 379.61238733312786) rotate(0 47.644465689398714 8.32945204360118)"><text x="0" y="11.658904087202355" font-family="Virgil, Segoe UI Emoji" font-size="13.327123269761884px" fill="#5c940d" text-anchor="start" style="white-space: pre;" direction="ltr">Título do item</text></g><g stroke-linecap="round" transform="translate(461.3885026169919 411.2253622061409) rotate(0 54.000811170983184 29.812947833980303)"><path d="M-1.83 0.69 C31.82 -0.25, 63.04 0.31, 109.99 0.92 M0.57 0.05 C32.64 -0.4, 66.39 -0.82, 107.71 -0.77 M109.01 -1.42 C108.88 17.11, 108.83 32.18, 109.49 60.79 M108.36 -0.56 C108.86 15.06, 107.69 30.87, 108.51 60.25 M108.97 60.75 C74.46 61.2, 43.16 59.73, 1.69 60.91 M107.73 60.08 C81.51 60.73, 53.92 59.39, -0.84 60.24 M-0.39 58.38 C1.07 36.57, 2.49 16.39, 0.97 -1.83 M0 60.56 C0.47 40.13, 0.4 23.2, 0.46 -0.01" stroke="#000000" stroke-width="1" fill="none"></path></g><g transform="translate(486.13887440369274 421.2380126107607) rotate(0 31.10671726828508 19.64634774839061)"><text x="0" y="13.6463477483906" font-family="Virgil, Segoe UI Emoji" font-size="15.52304019625924px" fill="#000000" text-anchor="start" style="white-space: pre;" direction="ltr">Imagem </text><text x="0" y="33.2926954967812" font-family="Virgil, Segoe UI Emoji" font-size="15.52304019625924px" fill="#000000" text-anchor="start" style="white-space: pre;" direction="ltr">do item</text></g><g transform="translate(456.88843501941005 488.7390265744897) rotate(0 57.8821194738976 8.395116564916464)"><text x="0" y="11.790233129832888" font-family="Virgil, Segoe UI Emoji" font-size="13.126251815874276px" fill="#000000" text-anchor="start" style="white-space: pre;" direction="ltr">Descrição do item</text></g><g stroke-linecap="round"><g transform="translate(741.0997758919441 455.89153657889995) rotate(0 57.17427974607216 0.8288459700392536)"><path d="M-0.85 1.19 C18.29 1.54, 96.04 1.67, 115.2 1.66 M0.9 0.77 C19.91 0.83, 95.9 0.3, 114.6 0" stroke="#5c940d" stroke-width="1" fill="none"></path></g><g transform="translate(741.0997758919441 455.89153657889995) rotate(0 57.17427974607216 0.8288459700392536)"><path d="M88.5 11.66 C97.28 6.51, 105.68 2.3, 115.69 0.39 M85.9 11.42 C97.32 6.03, 107.77 2.47, 114.09 0.12" stroke="#5c940d" stroke-width="1" fill="none"></path></g><g transform="translate(741.0997758919441 455.89153657889995) rotate(0 57.17427974607216 0.8288459700392536)"><path d="M88.29 -8.86 C97.06 -7.25, 105.53 -4.7, 115.69 0.39 M85.69 -9.1 C97.17 -6.42, 107.71 -1.91, 114.09 0.12" stroke="#5c940d" stroke-width="1" fill="none"></path></g></g><g transform="translate(881.7424242424242 445.70866560340244) rotate(0 80 12.5)"><text x="0" y="18" font-family="Virgil, Segoe UI Emoji" font-size="20px" fill="#5c940d" text-anchor="start" style="white-space: pre;" direction="ltr">Cartão de itens</text></g><g stroke-linecap="round" transform="translate(428.95454545454515 165.56725146198815) rotate(0 162.55555555555554 190.5555555555556)"><path d="M-0.88 0.16 C127.68 1.82, 254.5 0.31, 325.44 -0.44 M0.34 -0.16 C87.63 0.59, 174.69 0.8, 325.54 0.16 M324.23 -0.98 C324.5 95.62, 323.57 191.09, 324.81 382.12 M325.53 0.57 C326.47 118.02, 325.68 236.95, 325.51 381.26 M325.4 381.09 C198.85 382.19, 75.39 380.73, 0.44 380.88 M324.49 381.52 C230.52 380.99, 136.66 381.54, -0.13 381.78 M-0.42 380.39 C2.55 304.1, 2.39 225.26, 0.87 0.76 M0.44 380.8 C-1.3 257.01, -1.04 133.87, -0.52 0.56" stroke="#862e9c" stroke-width="1" fill="none"></path></g><g stroke-linecap="round"><g transform="translate(755.1010422698317 382.2255492112452) rotate(0 55.378763783138254 1.76083766898347)"><path d="M-0.87 -0.79 C17.8 -0.34, 92.8 2.02, 111.63 2.73 M0.87 1.41 C19.42 2.07, 92.17 4.29, 110.62 4.31" stroke="#862e9c" stroke-width="1" fill="none"></path></g><g transform="translate(755.1010422698317 382.2255492112452) rotate(0 55.378763783138254 1.76083766898347)"><path d="M80.94 13.87 C89.85 12.36, 98.56 8.04, 110.31 5.26 M82.5 14.17 C93.03 10.93, 103.08 7.33, 111.12 4.49" stroke="#862e9c" stroke-width="1" fill="none"></path></g><g transform="translate(755.1010422698317 382.2255492112452) rotate(0 55.378763783138254 1.76083766898347)"><path d="M81.31 -6.64 C90.13 -2.75, 98.74 -1.66, 110.31 5.26 M82.87 -6.35 C93.26 -1.92, 103.17 2.15, 111.12 4.49" stroke="#862e9c" stroke-width="1" fill="none"></path></g></g><g transform="translate(885.9545454545453 377.233918128655) rotate(0 110.5 12.5)"><text x="0" y="18" font-family="Virgil, Segoe UI Emoji" font-size="20px" fill="#862e9c" text-anchor="start" style="white-space: pre;" direction="ltr">Container dos cartões</text></g><g stroke-linecap="round" transform="translate(269.8989898989898 230.01800903774597) rotate(0 65.45454545454547 148.1818181818182)"><path d="M1.25 0.85 C37.46 0.34, 76.48 -0.13, 131.24 -1.2 M0.4 -0.61 C36.6 1.61, 74.7 0.67, 129.95 0.22 M130.55 0.97 C130.75 107.12, 131.4 214.56, 130.04 295.12 M131.38 -0.21 C132.8 89, 132.05 178.77, 130.24 295.76 M130.74 295.58 C99.9 294.91, 66.14 294.59, 1.76 295.48 M131.79 297.19 C82.48 295.85, 32.93 295.98, 0.87 296.12 M0.76 296.64 C-1.95 182.18, -1.75 68.37, 1.31 1.13 M-0.65 296.25 C-0.22 236.9, -1.42 176.37, 0.37 -0.18" stroke="#c92a2a" stroke-width="1" fill="none"></path></g><g stroke-linecap="round"><g transform="translate(258.5834705144919 242.51513131306376) rotate(0 -50.72936557120687 -0.687600339982481)"><path d="M0.5 0.02 C-16.43 -0.02, -84.11 0.32, -100.76 0.32 M-0.69 -1.02 C-17.91 -1.47, -85.46 -1.94, -101.96 -1.54" stroke="#862e9c" stroke-width="1" fill="none"></path></g><g transform="translate(258.5834705144919 242.51513131306376) rotate(0 -50.72936557120687 -0.687600339982481)"><path d="M-73.8 -12.77 C-83.42 -6.52, -94.46 -2.5, -100.37 0.32 M-73.49 -11.43 C-82.04 -9.15, -88.16 -6.85, -101.66 -1.73" stroke="#862e9c" stroke-width="1" fill="none"></path></g><g transform="translate(258.5834705144919 242.51513131306376) rotate(0 -50.72936557120687 -0.687600339982481)"><path d="M-73.68 7.75 C-83.44 6.37, -94.52 2.75, -100.37 0.32 M-73.37 9.1 C-81.96 5.98, -88.11 2.9, -101.66 -1.73" stroke="#862e9c" stroke-width="1" fill="none"></path></g></g><g transform="translate(10 221.01800903774597) rotate(0 67 25)"><text x="0" y="18" font-family="Virgil, Segoe UI Emoji" font-size="20px" fill="#862e9c" text-anchor="start" style="white-space: pre;" direction="ltr">Container de </text><text x="0" y="43" font-family="Virgil, Segoe UI Emoji" font-size="20px" fill="#862e9c" text-anchor="start" style="white-space: pre;" direction="ltr">categorias</text></g></svg>